<svg width="35" height="35" viewBox="0 0 54 53" fill="none" xmlns="http://www.w3.org/2000/svg">
<g id="Icon">
<path id="Style" fill-rule="evenodd" clip-rule="evenodd" d="M47.2466 15.5786C47.25 10.5798 43.2205 6.625 38.25 6.625L37.5785 6.67028C29.3277 7.34484 22.219 12.299 18.8673 19.5441L18.6637 19.9987L18.3818 20.0353C13.6583 20.7232 9.46811 23.4899 7.05071 27.6054L6.9855 27.7233L6.88558 27.9518L6.81169 28.1937L6.78534 28.3149L6.77697 28.3793L6.76569 28.4477L6.74976 28.7052L6.75174 28.8027L6.77607 29.0443L6.827 29.2812L6.90391 29.5114L7.00618 29.7324L7.13318 29.942L7.2843 30.138L7.39535 30.2565L7.57801 30.4201L7.65643 30.48L7.77885 30.5637L7.99639 30.6855L8.22916 30.7836L8.47566 30.8561L8.59912 30.8819L8.66472 30.888L8.73444 30.9012L9.30166 30.9776C10.0001 31.0842 10.6831 31.2354 11.3475 31.4282C7.88111 34.7713 6.12102 39.5717 6.76882 44.452C6.90068 45.4453 7.69723 46.2271 8.70929 46.3565C13.6817 46.9923 18.5726 45.2648 21.9788 41.8626C22.2281 42.6903 22.4091 43.5472 22.5157 44.4273C22.7063 46.0014 24.4745 46.8716 25.8737 46.0798L26.3907 45.7743C30.2981 43.3636 32.915 39.4014 33.5866 34.9586L33.6217 34.6797L34.0871 34.4822C41.6684 31.1042 46.7874 23.8443 47.2466 15.5786ZM11.15 41.9113C11.3166 38.5795 13.0175 35.4777 15.7928 33.5085C17.3851 34.5828 18.7647 35.9368 19.8593 37.4996C17.8529 40.2235 14.6926 41.8929 11.2979 42.0565L11.1442 42.0599L11.15 41.9113ZM22.3725 22.8162C24.7884 16.0758 31.1032 11.4274 38.3725 11.0384C40.7353 11.0417 42.75 13.0191 42.75 15.4583C42.357 22.4728 37.6208 28.6707 30.7533 31.0418C29.8783 31.3439 29.2818 32.1422 29.2512 33.0521L29.2214 33.5702C29.025 35.977 28.0332 38.2251 26.4408 39.9957L26.1855 40.2645L26.0631 39.8922C24.0466 34.0249 19.3331 29.3987 13.3551 27.4195L12.9735 27.2972L13.2496 27.0488C15.1825 25.3742 17.6738 24.3764 20.3242 24.2905C21.2513 24.2604 22.0646 23.675 22.3725 22.8162ZM29.25 19.875C29.25 17.4357 31.2647 15.4583 33.75 15.4583C36.2353 15.4583 38.25 17.4357 38.25 19.875C38.25 22.3143 36.2353 24.2917 33.75 24.2917C31.2647 24.2917 29.25 22.3143 29.25 19.875Z" fill="#268EC2"/>
</g>
</svg>
