<svg width="21" height="22" viewBox="0 0 21 22" fill="none" xmlns="http://www.w3.org/2000/svg">
<g id="Rabbit">
<path id="icons8-running-rabbit" d="M10.9251 0.430542C8.4696 0.430542 7.5555 0.912199 7.5555 2.19726C7.56267 2.50087 7.70208 2.78544 7.93574 2.97345C8.73467 3.50198 9.69633 3.71168 10.6371 3.56256C13.1763 3.2029 14.4985 3.80339 15.3314 4.48606C15.0332 4.79784 14.805 5.17205 14.6626 5.58276C14.6143 5.76949 14.5181 5.93968 14.3839 6.0758C13.969 6.44242 13.4234 6.26544 12.43 5.90198C11.5183 5.51367 10.5456 5.29612 9.55828 5.25979C7.03046 5.24259 4.85641 7.08264 4.40507 9.62127C4.05726 9.40664 3.65768 9.29543 3.25129 9.30016C2.20682 9.24345 1.3151 10.0617 1.25954 11.1277C1.25642 11.1876 1.25605 11.2477 1.25838 11.3077C1.28982 11.8945 1.61257 12.4244 2.11424 12.7128C2.82691 13.1213 3.68575 13.166 4.43539 12.8335C5.10239 13.8354 6.46114 14.0731 6.93983 14.1609C6.98381 14.1691 7.01664 14.171 7.0315 14.1742C7.21687 14.2223 7.40513 14.2579 7.59507 14.281C7.96668 14.3348 8.64417 14.4346 8.64417 14.6691C8.64417 14.9037 8.47017 15.1008 8.18527 15.3783C7.83523 15.6315 7.60942 16.0268 7.56596 16.4624C7.56596 17.707 8.97547 17.8372 9.72917 17.908C9.89225 17.9176 10.0544 17.94 10.2141 17.975C11.3051 18.2494 12.2301 18.985 12.7576 19.9977L12.8492 20.1317C13.3952 20.909 14.2604 21.3875 15.1964 21.43C15.3427 21.4338 15.4888 21.4157 15.6299 21.3763C16.0053 21.2774 16.2654 20.9288 16.2591 20.5331C16.229 19.1133 15.4926 17.8069 14.3052 17.0667C13.6747 16.634 12.9914 16.2876 12.2727 16.0363C12.8308 15.5414 13.1941 14.8566 13.2951 14.1091C13.315 13.9922 13.323 13.8733 13.3342 13.7614C13.3391 13.7165 13.3552 13.671 13.3602 13.6274C13.3732 13.4688 13.3713 13.3177 13.3732 13.1723V13.0516C13.4107 11.7078 12.6858 10.4623 11.5115 9.85317C11.3095 9.73773 11.2374 9.47698 11.3505 9.27072C11.3517 9.26847 11.353 9.26626 11.3543 9.26402C11.4765 9.057 11.7375 8.98601 11.9444 9.10348C14.1325 10.3361 14.849 12.9245 13.6754 15.7013C13.79 15.7601 13.9002 15.8233 14.016 15.8909C16.0051 14.4033 17.1636 12.0233 17.1237 9.50675C17.6116 9.71416 18.1302 9.83638 18.6577 9.8683C19.456 9.92517 20.4537 9.64581 20.7423 9.07879C21.221 8.14519 20.9473 6.33358 20.611 5.70655C19.9155 4.36832 18.5118 3.5751 17.0315 3.68383C15.7867 1.58791 12.6821 0.430542 10.9251 0.430542ZM1.81214 3.44185C1.58042 3.43277 1.38533 3.61711 1.37643 3.85362C1.36754 4.09013 1.54815 4.28925 1.77987 4.29833C1.79063 4.29877 1.80138 4.29877 1.8121 4.29833H6.10015C6.33188 4.28925 6.51249 4.09013 6.50359 3.85362C6.49516 3.62986 6.31939 3.45044 6.10015 3.44185H1.81214ZM1.11727 5.15486C0.885549 5.14577 0.690462 5.33012 0.681565 5.56663C0.672669 5.80314 0.853278 6.00226 1.085 6.01134C1.09576 6.01178 1.10651 6.01178 1.11723 6.01134H4.08058C4.3123 6.02042 4.50739 5.83608 4.51629 5.59956C4.52519 5.36305 4.34458 5.16394 4.11285 5.15486C4.10209 5.15441 4.09134 5.15441 4.08063 5.15486H1.11727ZM19.1074 6.43925C19.4549 6.43925 19.7366 6.72677 19.7366 7.08145C19.7366 7.43613 19.4549 7.72365 19.1074 7.72365C18.7599 7.72365 18.4782 7.43613 18.4782 7.08145C18.4785 6.72695 18.76 6.43961 19.1074 6.43925ZM0.436023 6.86783C0.204299 6.85875 0.0092116 7.04309 0.000315055 7.2796C-0.00858149 7.51611 0.172028 7.71523 0.403752 7.72431C0.414512 7.72475 0.425262 7.72475 0.436023 7.72431H3.12381C3.35553 7.73339 3.55062 7.54905 3.55951 7.31254C3.56841 7.07603 3.3878 6.87691 3.15608 6.86783C3.14532 6.86738 3.13457 6.86738 3.12381 6.86783H0.436023Z" fill="#3B5998"/>
</g>
</svg>
