<svg width="21" height="22" viewBox="0 0 21 22" fill="none" xmlns="http://www.w3.org/2000/svg">
<g id="Rabbit">
<path id="icons8-running-rabbit" d="M10.9251 0.96875C8.4696 0.96875 7.5555 1.45041 7.5555 2.73547C7.56267 3.03908 7.70208 3.32365 7.93574 3.51166C8.73467 4.04019 9.69633 4.24989 10.6371 4.10077C13.1763 3.74111 14.4985 4.34159 15.3314 5.02427C15.0332 5.33605 14.805 5.71026 14.6626 6.12097C14.6143 6.3077 14.5181 6.47789 14.3839 6.61401C13.969 6.98063 13.4234 6.80365 12.43 6.44019C11.5183 6.05188 10.5456 5.83433 9.55828 5.79799C7.03046 5.7808 4.85641 7.62084 4.40507 10.1595C4.05726 9.94485 3.65768 9.83364 3.25129 9.83836C2.20682 9.78166 1.3151 10.5999 1.25954 11.6659C1.25642 11.7258 1.25605 11.7859 1.25838 11.8459C1.28982 12.4327 1.61257 12.9626 2.11424 13.251C2.82691 13.6595 3.68575 13.7042 4.43539 13.3717C5.10239 14.3736 6.46114 14.6113 6.93983 14.6991C6.98381 14.7073 7.01664 14.7092 7.0315 14.7124C7.21687 14.7605 7.40513 14.7961 7.59507 14.8192C7.96668 14.873 8.64417 14.9729 8.64417 15.2073C8.64417 15.4419 8.47017 15.639 8.18527 15.9166C7.83523 16.1697 7.60942 16.565 7.56596 17.0006C7.56596 18.2452 8.97547 18.3754 9.72917 18.4462C9.89225 18.4558 10.0544 18.4782 10.2141 18.5132C11.3051 18.7876 12.2301 19.5232 12.7576 20.5359L12.8492 20.6699C13.3952 21.4472 14.2604 21.9258 15.1964 21.9683C15.3427 21.9721 15.4888 21.9539 15.6299 21.9145C16.0053 21.8156 16.2654 21.467 16.2591 21.0713C16.229 19.6515 15.4926 18.3451 14.3052 17.6049C13.6747 17.1722 12.9914 16.8258 12.2727 16.5746C12.8308 16.0796 13.1941 15.3948 13.2951 14.6473C13.315 14.5304 13.323 14.4115 13.3342 14.2996C13.3391 14.2547 13.3552 14.2092 13.3602 14.1656C13.3732 14.007 13.3713 13.8559 13.3732 13.7105V13.5898C13.4107 12.246 12.6858 11.0005 11.5115 10.3914C11.3095 10.2759 11.2374 10.0152 11.3505 9.80892C11.3517 9.80668 11.353 9.80447 11.3543 9.80223C11.4765 9.59521 11.7375 9.52422 11.9444 9.64168C14.1325 10.8743 14.849 13.4627 13.6754 16.2395C13.79 16.2983 13.9002 16.3615 14.016 16.4292C16.0051 14.9415 17.1636 12.5615 17.1237 10.045C17.6116 10.2524 18.1302 10.3746 18.6577 10.4065C19.456 10.4634 20.4537 10.184 20.7423 9.61699C21.221 8.68339 20.9473 6.87179 20.611 6.24475C19.9155 4.90652 18.5118 4.11331 17.0315 4.22203C15.7867 2.12611 12.6821 0.96875 10.9251 0.96875ZM1.81214 3.98006C1.58042 3.97097 1.38533 4.15532 1.37643 4.39183C1.36754 4.62834 1.54815 4.82746 1.77987 4.83654C1.79063 4.83698 1.80138 4.83698 1.8121 4.83654H6.10015C6.33188 4.82746 6.51249 4.62834 6.50359 4.39183C6.49516 4.16807 6.31939 3.98865 6.10015 3.98006H1.81214ZM1.11727 5.69306C0.885549 5.68398 0.690462 5.86832 0.681565 6.10484C0.672669 6.34135 0.853278 6.54046 1.085 6.54954C1.09576 6.54999 1.10651 6.54999 1.11723 6.54954H4.08058C4.3123 6.55862 4.50739 6.37428 4.51629 6.13777C4.52519 5.90126 4.34458 5.70214 4.11285 5.69306C4.10209 5.69262 4.09134 5.69262 4.08063 5.69306H1.11727ZM19.1074 6.97746C19.4549 6.97746 19.7366 7.26498 19.7366 7.61966C19.7366 7.97434 19.4549 8.26186 19.1074 8.26186C18.7599 8.26186 18.4782 7.97434 18.4782 7.61966C18.4785 7.26516 18.76 6.97781 19.1074 6.97746ZM0.436023 7.40604C0.204299 7.39696 0.0092116 7.5813 0.000315055 7.81781C-0.00858149 8.05432 0.172028 8.25344 0.403752 8.26252C0.414512 8.26296 0.425262 8.26296 0.436023 8.26252H3.12381C3.35553 8.2716 3.55062 8.08726 3.55951 7.85075C3.56841 7.61424 3.3878 7.41512 3.15608 7.40604C3.14532 7.40559 3.13457 7.40559 3.12381 7.40604H0.436023Z" fill="#8AB428"/>
</g>
</svg>
