<svg width="35" height="35" viewBox="0 0 43 43" fill="none" xmlns="http://www.w3.org/2000/svg">
<g id="Icon">
<path id="icons8-running-rabbit" d="M22.3705 0C17.3425 0 15.4708 0.986251 15.4708 3.61756C15.4855 4.23925 15.7709 4.82194 16.2494 5.20691C17.8853 6.28914 19.8544 6.71853 21.7808 6.41317C26.98 5.67673 29.6873 6.9063 31.393 8.30417C30.7823 8.94256 30.315 9.7088 30.0234 10.5498C29.9246 10.9321 29.7276 11.2806 29.4527 11.5593C28.6031 12.31 27.4859 11.9476 25.4519 11.2034C23.5851 10.4083 21.5933 9.96285 19.5717 9.88845C14.3957 9.85325 9.94408 13.621 9.0199 18.8191C8.30773 18.3796 7.48953 18.1519 6.65741 18.1616C4.51872 18.0455 2.69281 19.7209 2.57906 21.9037C2.57268 22.0264 2.5719 22.1494 2.57668 22.2722C2.64107 23.4738 3.30192 24.5588 4.32917 25.1494C5.78842 25.9859 7.54701 26.0774 9.082 25.3966C10.4478 27.448 13.23 27.9348 14.2101 28.1146C14.3002 28.1314 14.3674 28.1353 14.3978 28.1418C14.7774 28.2402 15.1629 28.3132 15.5518 28.3605C16.3127 28.4706 17.7 28.6751 17.7 29.1552C17.7 29.6354 17.3437 30.0392 16.7603 30.6074C16.0436 31.1258 15.5812 31.9351 15.4922 32.8271C15.4922 35.3755 18.3783 35.6422 19.9216 35.7871C20.2556 35.8068 20.5875 35.8527 20.9146 35.9244C23.1486 36.4863 25.0426 37.9925 26.1227 40.0661L26.3104 40.3405C27.4282 41.932 29.1998 42.912 31.1164 42.999C31.416 43.0068 31.7151 42.9696 32.0041 42.889C32.7728 42.6864 33.3054 41.9726 33.2925 41.1624C33.2308 38.2552 31.723 35.5802 29.2916 34.0645C28.0007 33.1785 26.6015 32.4692 25.1297 31.9547C26.2726 30.9413 27.0164 29.5391 27.2234 28.0084C27.264 27.769 27.2805 27.5257 27.3033 27.2966C27.3135 27.2047 27.3464 27.1115 27.3565 27.0222C27.3832 26.6974 27.3793 26.388 27.3832 26.0903V25.8431C27.46 23.0914 25.9757 20.5411 23.5713 19.294C23.1575 19.0576 23.0099 18.5237 23.2415 18.1013C23.244 18.0967 23.2466 18.0922 23.2492 18.0876C23.4995 17.6637 24.0339 17.5183 24.4577 17.7589C28.9379 20.2827 30.405 25.5828 28.002 31.2687C28.2366 31.3891 28.4623 31.5185 28.6995 31.657C32.7724 28.6108 35.1446 23.7376 35.0628 18.5846C36.0618 19.0093 37.1237 19.2596 38.2039 19.3249C39.8385 19.4414 41.8814 18.8694 42.4723 17.7083C43.4526 15.7967 42.892 12.0872 42.2035 10.8032C40.7794 8.06306 37.9051 6.43886 34.874 6.66149C32.3251 2.36984 25.9681 0 22.3705 0ZM3.71057 6.16601C3.23609 6.14741 2.83663 6.52487 2.81841 7.00916C2.80019 7.49344 3.17001 7.90116 3.6445 7.91975C3.66653 7.92066 3.68854 7.92066 3.71048 7.91975H12.4908C12.9653 7.90116 13.3351 7.49344 13.3169 7.00916C13.2996 6.55098 12.9397 6.1836 12.4908 6.16601H3.71057ZM2.28775 9.67359C1.81327 9.655 1.4138 10.0325 1.39559 10.5167C1.37737 11.001 1.74719 11.4087 2.22167 11.4273C2.2437 11.4283 2.26571 11.4283 2.28766 11.4273H8.35548C8.82996 11.4459 9.22942 11.0685 9.24764 10.5842C9.26586 10.0999 8.89604 9.69219 8.42156 9.67359C8.39952 9.67268 8.37751 9.67268 8.35557 9.67359H2.28775ZM39.1246 12.3035C39.8362 12.3035 40.413 12.8923 40.413 13.6185C40.413 14.3448 39.8362 14.9335 39.1246 14.9335C38.4131 14.9335 37.8362 14.3448 37.8362 13.6185C37.8369 12.8926 38.4133 12.3043 39.1246 12.3035ZM0.892808 13.1811C0.418327 13.1625 0.0188619 13.54 0.000645113 14.0243C-0.0175716 14.5085 0.352249 14.9163 0.82673 14.9349C0.848763 14.9358 0.870774 14.9358 0.892808 14.9349H6.39637C6.87085 14.9535 7.27031 14.576 7.28853 14.0917C7.30675 13.6074 6.93693 13.1997 6.46244 13.1811C6.44041 13.1802 6.4184 13.1802 6.39637 13.1811H0.892808Z" fill="#8AB428"/>
</g>
</svg>
