<svg width="35" height="35" viewBox="0 0 46 46" fill="none" xmlns="http://www.w3.org/2000/svg">
<g id="Icon">
<path id="Style" fill-rule="evenodd" clip-rule="evenodd" d="M23 3.83334C12.4146 3.83334 3.83337 12.4145 3.83337 23C3.83337 33.5855 12.4146 42.1667 23 42.1667C33.5855 42.1667 42.1667 33.5855 42.1667 23C42.1667 12.4145 33.5855 3.83334 23 3.83334ZM23 7.66667C31.4684 7.66667 38.3334 14.5316 38.3334 23C38.3334 31.4684 31.4684 38.3333 23 38.3333C14.5317 38.3333 7.66671 31.4684 7.66671 23C7.66671 14.5316 14.5317 7.66667 23 7.66667ZM11.5 23C11.5 16.6487 16.6488 11.5 23 11.5C29.3513 11.5 34.5 16.6487 34.5 23C34.5 29.3513 29.3513 34.5 23 34.5C16.6488 34.5 11.5 29.3513 11.5 23ZM30.6667 23C30.6667 18.7658 27.2342 15.3333 23 15.3333C18.7659 15.3333 15.3334 18.7658 15.3334 23C15.3334 27.2342 18.7659 30.6667 23 30.6667C27.2342 30.6667 30.6667 27.2342 30.6667 23ZM23 19.1667C20.8829 19.1667 19.1667 20.8829 19.1667 23C19.1667 25.1171 20.8829 26.8333 23 26.8333C25.1171 26.8333 26.8334 25.1171 26.8334 23C26.8334 20.8829 25.1171 19.1667 23 19.1667Z" fill="#8AB428"/>
</g>
</svg>
