<svg width="120" height="48" viewBox="0 0 179 48" fill="none" xmlns="http://www.w3.org/2000/svg">
<g id="Layer_1" clip-path="url(#clip0_29926_14688)">
<path id="icons8-running-rabbit" d="M25.3 0C19.6 0 17.5 1.1 17.5 4C17.5 4.7 17.8 5.3 18.4 5.8C20.2 7 22.5 7.5 24.7 7.1C30.6 6.3 33.6 7.6 35.6 9.2C34.9 9.9 34.4 10.8 34.1 11.7C34 12.1 33.8 12.5 33.5 12.8C32.5 13.6 31.3 13.2 29 12.4C26.9 11.5 24.6 11 22.4 10.9C16.5 10.9 11.5 15 10.5 20.8C9.7 20.3 8.8 20.1 7.8 20.1C5.4 20 3.3 21.8 3.2 24.2V24.6C3.3 25.9 4 27.1 5.2 27.8C6.8 28.7 8.8 28.8 10.6 28.1C12.1 30.4 15.3 30.9 16.4 31.1H16.6C17 31.2 17.5 31.3 17.9 31.3C18.8 31.4 20.3 31.6 20.3 32.2C20.3 32.7 19.9 33.2 19.2 33.8C18.4 34.4 17.9 35.3 17.8 36.3C17.8 39.1 21.1 39.4 22.8 39.6C23.2 39.6 23.6 39.7 23.9 39.8C26.4 40.4 28.6 42.1 29.8 44.4L30 44.7C31.3 46.5 33.3 47.5 35.4 47.6C35.7 47.6 36.1 47.6 36.4 47.5C37.3 47.3 37.9 46.5 37.9 45.6C37.8 42.4 36.1 39.4 33.4 37.7C31.9 36.7 30.4 35.9 28.7 35.4C30 34.3 30.8 32.7 31.1 31C31.1 30.7 31.2 30.5 31.2 30.2C31.2 30.1 31.2 30 31.3 29.9V28.7C31.4 25.7 29.7 22.8 27 21.4C26.5 21.1 26.4 20.5 26.6 20.1C26.9 19.6 27.5 19.5 28 19.7C33.1 22.5 34.7 28.4 32 34.7C32.3 34.8 32.5 35 32.8 35.1C37.4 31.7 40.1 26.3 40 20.6C41.1 21.1 42.3 21.3 43.6 21.4C45.4 21.5 47.8 20.9 48.4 19.6C49.5 17.5 48.9 13.4 48.1 12C46.5 9 43.2 7.2 39.8 7.4C36.6 2.7 29.4 0 25.3 0ZM4.2 6.9C3.7 6.9 3.2 7.3 3.2 7.8C3.2 8.3 3.6 8.8 4.1 8.8H14.1C14.6 8.8 15.1 8.3 15 7.8C15 7.3 14.6 6.9 14.1 6.9H4.2ZM2.6 10.8C2.1 10.8 1.6 11.2 1.6 11.7C1.6 12.2 2 12.7 2.5 12.7H9.5C10 12.7 10.5 12.3 10.5 11.8C10.5 11.3 10.1 10.8 9.6 10.8H2.6ZM44.2 13.7C45 13.7 45.7 14.4 45.7 15.2C45.7 16 45 16.7 44.2 16.7C43.4 16.7 42.7 16 42.7 15.2C42.8 14.3 43.4 13.7 44.2 13.7ZM1 14.6C0.5 14.6 0 15 0 15.5C0 16 0.4 16.5 0.9 16.5H7.2C7.7 16.5 8.2 16.1 8.2 15.6C8.2 15.1 7.8 14.6 7.3 14.6H1Z" fill="#288EBF"/>
<g id="Group">
<path id="Vector" d="M72.5 38.9H69.4C63.5 38.9 61.2 36.4 61.2 30.9V16.2H58.7C58.7 12.5 58.7 10.6 60.9 10.6H72.5C80.8 10.6 86.5 15 86.5 24C86.6 33 80.1 38.9 72.5 38.9ZM67.7 16.2V30.1C67.7 32.3 68.6 33.3 70.8 33.3H71.7C76 33.3 79.6 30.3 79.6 24C79.6 18.2 75.7 16.2 71.3 16.2H67.7Z" fill="#0F394E"/>
<path id="Vector_2" d="M97 26.5L101.8 26V25.9C101.6 22.5 99.1 21.6 96.3 21.6C94.4 21.6 92.6 22.2 90.9 22.9V21.2C90.9 18.1 95.7 17 98.9 17C103.3 17 107.6 18.4 108.1 25.6L108.9 36.4C109.1 38.9 106.6 38.9 102.5 38.9L102.3 35.6C100.6 37.8 98.2 39.2 95.2 39.2C90.9 39.2 88.9 35.9 88.9 32.8C88.9 29.4 91.1 27 97 26.5ZM97.9 35C100.3 35 101.8 32.2 102 29.6L98 30.1C96.5 30.3 95.6 31.3 95.6 32.5C95.6 33.9 96.4 35 97.9 35Z" fill="#0F394E"/>
<path id="Vector_3" d="M119.2 39.3C116.6 39.3 112.8 38.6 112.8 35.2V33.7C114.2 34.4 116 34.8 117.7 34.8C119.7 34.8 121.1 34.2 121.1 33.1C121.1 30.3 111.4 32.5 111.4 24.5C111.4 19.9 115.5 17.1 120.6 17.1C125.4 17.1 128.4 19.3 128.4 22.2C128.4 24.1 127 24.9 125.1 24.9H123.4V24.2C123.4 22.6 122.5 21.6 120.6 21.6C118.9 21.6 118 22.7 118 23.7C118 28 127.7 25 127.7 32.6C127.7 37.2 123.6 39.3 119.2 39.3Z" fill="#0F394E"/>
<path id="Vector_4" d="M146.6 39V26.9C146.6 24.1 145.5 22.6 143 22.6C140.7 22.6 138.2 24.4 138.2 27.8V38.8H132V13.7C132 10.4 132.7 10.4 138.2 10.4V21.2C140.1 18.4 142.8 17 145.9 17C150.5 17 152.8 19.7 152.8 24.3V35.7C152.7 39 152 39 146.6 39Z" fill="#0F394E"/>
</g>
<path id="Vector_5" d="M167.4 39.3C161.4 39.3 156.2 35.3 156.2 27.3V12.5C156.2 10.4 156.9 10.4 160.2 10.4V26.7C160.2 33.2 163.1 35.5 167.4 35.5C171.7 35.5 174.9 33.2 174.9 26.7V10.6H178.8V27.3C178.8 35.8 173.5 39.3 167.4 39.3Z" fill="#A1C351"/>
</g>
<defs>
<clipPath id="clip0_29926_14688">
<rect width="178.8" height="47.6" fill="white"/>
</clipPath>
</defs>
</svg>
