<svg width="38" height="38" viewBox="0 0 44 44" fill="none" xmlns="http://www.w3.org/2000/svg">
<rect width="44" height="44" rx="22" fill="#E9F4F9"/>
<path fill-rule="evenodd" clip-rule="evenodd" d="M31.4267 12.5733V12.5733C26.2366 7.34942 17.7945 7.32196 12.5705 12.512C8.68678 16.3705 7.55637 22.211 9.71994 27.24V27.24C9.8478 27.505 9.88975 27.8033 9.83994 28.0933L8.66661 33.7333H8.66661C8.57478 34.1726 8.71007 34.6285 9.02661 34.9466H9.02661C9.28473 35.2029 9.63634 35.3426 9.99994 35.3333H10.2666L15.9733 34.1866V34.1866C16.2633 34.1518 16.5574 34.1931 16.8266 34.3066V34.3066C23.591 37.2168 31.4337 34.0923 34.3438 27.328C36.5074 22.299 35.377 16.4585 31.4932 12.6L31.4267 12.5733ZM16.6667 23.3333V23.3333C15.9303 23.3333 15.3333 22.7364 15.3333 22C15.3333 21.2636 15.9303 20.6667 16.6667 20.6667C17.403 20.6667 18 21.2636 18 22V22C18 22.7364 17.403 23.3333 16.6667 23.3333V23.3333ZM22 23.3333V23.3333C21.2636 23.3333 20.6667 22.7364 20.6667 22C20.6667 21.2636 21.2636 20.6667 22 20.6667C22.7364 20.6667 23.3333 21.2636 23.3333 22V22C23.3333 22.7364 22.7364 23.3333 22 23.3333V23.3333ZM27.3333 23.3333V23.3333C26.5969 23.3333 26 22.7364 26 22C26 21.2636 26.5969 20.6667 27.3333 20.6667C28.0697 20.6667 28.6667 21.2636 28.6667 22V22C28.6667 22.7364 28.0697 23.3333 27.3333 23.3333V23.3333Z" fill="#6441A5"/>
</svg>
