<svg width="21" height="22" viewBox="0 0 21 22" fill="none" xmlns="http://www.w3.org/2000/svg">
<g id="Rabbit">
<path id="icons8-running-rabbit" d="M10.9251 0.40918C8.4696 0.40918 7.5555 0.890837 7.5555 2.1759C7.56267 2.47951 7.70208 2.76408 7.93574 2.95209C8.73467 3.48062 9.69633 3.69032 10.6371 3.5412C13.1763 3.18154 14.4985 3.78202 15.3314 4.4647C15.0332 4.77648 14.805 5.15069 14.6626 5.5614C14.6143 5.74813 14.5181 5.91832 14.3839 6.05444C13.969 6.42106 13.4234 6.24408 12.43 5.88062C11.5183 5.49231 10.5456 5.27476 9.55828 5.23842C7.03046 5.22123 4.85641 7.06127 4.40507 9.59991C4.05726 9.38527 3.65768 9.27407 3.25129 9.27879C2.20682 9.22209 1.3151 10.0403 1.25954 11.1063C1.25642 11.1663 1.25605 11.2263 1.25838 11.2863C1.28982 11.8731 1.61257 12.403 2.11424 12.6915C2.82691 13.1 3.68575 13.1446 4.43539 12.8122C5.10239 13.814 6.46114 14.0517 6.93983 14.1396C6.98381 14.1478 7.01664 14.1497 7.0315 14.1528C7.21687 14.2009 7.40513 14.2366 7.59507 14.2597C7.96668 14.3134 8.64417 14.4133 8.64417 14.6478C8.64417 14.8823 8.47017 15.0795 8.18527 15.357C7.83523 15.6102 7.60942 16.0054 7.56596 16.441C7.56596 17.6856 8.97547 17.8159 9.72917 17.8866C9.89225 17.8962 10.0544 17.9186 10.2141 17.9536C11.3051 18.2281 12.2301 18.9637 12.7576 19.9764L12.8492 20.1104C13.3952 20.8876 14.2604 21.3662 15.1964 21.4087C15.3427 21.4125 15.4888 21.3944 15.6299 21.3549C16.0053 21.256 16.2654 20.9074 16.2591 20.5117C16.229 19.0919 15.4926 17.7855 14.3052 17.0453C13.6747 16.6126 12.9914 16.2662 12.2727 16.015C12.8308 15.5201 13.1941 14.8353 13.2951 14.0877C13.315 13.9708 13.323 13.852 13.3342 13.7401C13.3391 13.6952 13.3552 13.6497 13.3602 13.6061C13.3732 13.4474 13.3713 13.2963 13.3732 13.151V13.0302C13.4107 11.6864 12.6858 10.4409 11.5115 9.83181C11.3095 9.71637 11.2374 9.45562 11.3505 9.24935C11.3517 9.24711 11.353 9.2449 11.3543 9.24265C11.4765 9.03564 11.7375 8.96465 11.9444 9.08211C14.1325 10.3147 14.849 12.9031 13.6754 15.6799C13.79 15.7387 13.9002 15.8019 14.016 15.8696C16.0051 14.3819 17.1636 12.002 17.1237 9.48539C17.6116 9.6928 18.1302 9.81501 18.6577 9.84694C19.456 9.90381 20.4537 9.62445 20.7423 9.05742C21.221 8.12382 20.9473 6.31222 20.611 5.68518C19.9155 4.34695 18.5118 3.55374 17.0315 3.66246C15.7867 1.56654 12.6821 0.40918 10.9251 0.40918ZM1.81214 3.42048C1.58042 3.4114 1.38533 3.59575 1.37643 3.83226C1.36754 4.06877 1.54815 4.26789 1.77987 4.27697C1.79063 4.27741 1.80138 4.27741 1.8121 4.27697H6.10015C6.33188 4.26789 6.51249 4.06877 6.50359 3.83226C6.49516 3.60849 6.31939 3.42908 6.10015 3.42048H1.81214ZM1.11727 5.13349C0.885549 5.12441 0.690462 5.30875 0.681565 5.54526C0.672669 5.78178 0.853278 5.98089 1.085 5.98997C1.09576 5.99042 1.10651 5.99042 1.11723 5.98997H4.08058C4.3123 5.99905 4.50739 5.81471 4.51629 5.5782C4.52519 5.34169 4.34458 5.14257 4.11285 5.13349C4.10209 5.13305 4.09134 5.13305 4.08063 5.13349H1.11727ZM19.1074 6.41789C19.4549 6.41789 19.7366 6.70541 19.7366 7.06009C19.7366 7.41477 19.4549 7.70229 19.1074 7.70229C18.7599 7.70229 18.4782 7.41477 18.4782 7.06009C18.4785 6.70559 18.76 6.41824 19.1074 6.41789ZM0.436023 6.84647C0.204299 6.83739 0.0092116 7.02173 0.000315055 7.25824C-0.00858149 7.49475 0.172028 7.69387 0.403752 7.70295C0.414512 7.70339 0.425262 7.70339 0.436023 7.70295H3.12381C3.35553 7.71203 3.55062 7.52769 3.55951 7.29118C3.56841 7.05467 3.3878 6.85555 3.15608 6.84647C3.14532 6.84602 3.13457 6.84602 3.12381 6.84647H0.436023Z" fill="#EA4C89"/>
</g>
</svg>
