<svg width="38" height="38" viewBox="0 0 38 38" fill="none" xmlns="http://www.w3.org/2000/svg">
<g id="Eva / Square">
<path id="Style" fill-rule="evenodd" clip-rule="evenodd" d="M27.923 32.6153H9.46145H9.46145C6.91245 32.6153 4.84607 30.549 4.84607 28V9.53842V9.53842C4.84607 6.98942 6.91245 4.92303 9.46145 4.92303H27.923V4.92303C30.472 4.92303 32.5384 6.98942 32.5384 9.53842V28C32.5384 30.549 30.472 32.6153 27.923 32.6153ZM9.46145 7.99996C8.61178 7.99996 7.92299 8.68875 7.92299 9.53842V28C7.92299 28.8496 8.61178 29.5384 9.46145 29.5384H27.923C28.7727 29.5384 29.4615 28.8496 29.4615 28V9.53842C29.4615 8.68875 28.7727 7.99996 27.923 7.99996L9.46145 7.99996Z" fill="#BDBDBD"/>
</g>
</svg>
