<svg width="35" height="30" viewBox="0 0 47 47" fill="none" xmlns="http://www.w3.org/2000/svg">
<g id="Icon">
<path id="Style" fill-rule="evenodd" clip-rule="evenodd" d="M15.3403 41.3611C15.3403 42.7305 16.7858 43.5504 17.8708 42.7963L27.2536 36.2757H27.5798C36.1376 36.2757 43.0833 29.0353 43.0833 20.0962C43.0833 11.1571 36.1376 3.91666 27.5798 3.91666H19.4201C10.8623 3.91666 3.91666 11.1571 3.91666 20.0962C3.91666 27.4785 8.68891 33.8092 15.3403 35.6955V41.3611ZM18.6139 34.0529C18.6139 33.2416 18.0581 32.5474 17.2955 32.4063C11.6238 31.3571 7.44166 26.2411 7.44166 20.2229C7.44166 13.385 12.7978 7.83333 19.412 7.83333H27.3922C34.0063 7.83333 39.3625 13.385 39.3625 20.2229C39.3625 27.0608 34.0063 32.6125 27.3922 32.6125H26.5942C26.2817 32.6125 25.9762 32.7085 25.7154 32.8887L18.6139 37.7958V34.0529Z" fill="#268EC2"/>
</g>
</svg>
