<svg width="30" height="30" viewBox="0 0 43 43" fill="none" xmlns="http://www.w3.org/2000/svg">
<g id="Icon">
<path id="Style" fill-rule="evenodd" clip-rule="evenodd" d="M21.5 3.58333C16.5524 3.58333 12.5417 7.59411 12.5417 12.5417C12.5417 17.4892 16.5524 21.5 21.5 21.5C26.4475 21.5 30.4583 17.4892 30.4583 12.5417C30.4583 7.59411 26.4475 3.58333 21.5 3.58333ZM21.5 7.16666C24.4685 7.16666 26.875 9.57313 26.875 12.5417C26.875 15.5102 24.4685 17.9167 21.5 17.9167C18.5315 17.9167 16.125 15.5102 16.125 12.5417C16.125 9.57313 18.5315 7.16666 21.5 7.16666ZM34.0334 33.6531C33.8299 28.8858 29.9007 25.0833 25.0833 25.0833H17.9167L17.5281 25.0916C12.7608 25.2951 8.95833 29.2243 8.95833 34.0417V37.625L8.97038 37.8339C9.07388 38.725 9.83116 39.4167 10.75 39.4167C11.7395 39.4167 12.5417 38.6145 12.5417 37.625V34.0417L12.5508 33.7258C12.7143 30.9043 15.0542 28.6667 17.9167 28.6667H25.0833L25.3992 28.6758C28.2207 28.8393 30.4583 31.1791 30.4583 34.0417V37.625L30.4704 37.8339C30.5739 38.725 31.3312 39.4167 32.25 39.4167C33.2395 39.4167 34.0417 38.6145 34.0417 37.625V34.0417L34.0334 33.6531Z" fill="#268EC2"/>
</g>
</svg>
