<svg width="37" height="38" viewBox="0 0 37 38" fill="none" xmlns="http://www.w3.org/2000/svg">
<g id="Tabler / Various / Flame">
<path id="Style" fill-rule="evenodd" clip-rule="evenodd" d="M15.3846 6.46154C15.3846 9.10947 14.4517 11.0802 12.5868 13.1678L12.1436 13.6499L11.2059 14.6185C9.05325 16.8309 7.69232 20.2553 7.69232 23.3846C7.69232 29.3323 12.5139 34.1539 18.4616 34.1539C24.4092 34.1539 29.2308 29.3323 29.2308 23.3846C29.2308 20.7511 27.5481 16.6721 25.7643 14.6691C25.0726 13.8924 23.8255 14.0116 23.2935 14.9053L22.899 15.5585L22.5326 16.1427L22.201 16.6431C21.5171 17.6393 21.0482 18.0723 20.5966 18.1201L20.5431 18.1215L20.6286 17.9148C22.2973 13.5968 20.6669 8.02965 18.0109 5.37369C17.0418 4.40451 15.3846 5.09092 15.3846 6.46154ZM17.6816 10.8308L17.719 10.9469C18.4321 13.2595 18.4639 16.0179 17.1868 17.9079C16.7434 18.5642 16.8707 19.4499 17.481 19.9547L17.7093 20.1374C20.0551 21.9499 22.1423 21.5652 24.3775 18.7726L24.6216 18.4554L24.7412 18.6831C25.5374 20.2487 26.1539 22.1534 26.1539 23.3846C26.1539 27.633 22.7099 31.0769 18.4616 31.0769C14.2132 31.0769 10.7692 27.633 10.7692 23.3846C10.7692 21.0486 11.8234 18.3962 13.4103 16.7652L14.1123 16.0441L14.3857 15.7571L14.8815 15.2176C16.0447 13.9155 16.9397 12.6024 17.5439 11.1769L17.6816 10.8308Z" fill="#8AB428"/>
</g>
</svg>
